<mxfile host="app.diagrams.net" agent="Mozilla/5.0 (Windows NT 10.0; Win64; x64) AppleWebKit/537.36 (KHTML, like Gecko) Chrome/131.0.0.0 Safari/537.36 Edg/131.0.0.0" version="25.0.1">
  <diagram name="Trang-1" id="E_1r-okXrxQGhP0YfAGD">
    <mxGraphModel dx="604" dy="741" grid="1" gridSize="10" guides="1" tooltips="1" connect="1" arrows="1" fold="1" page="0" pageScale="1" pageWidth="827" pageHeight="1169" math="0" shadow="0">
      <root>
        <mxCell id="0" />
        <mxCell id="1" parent="0" />
        <mxCell id="goEPePhpF9s-D2FCUxsx-1" value="End&lt;div&gt;&lt;br&gt;&lt;/div&gt;" style="ellipse;whiteSpace=wrap;html=1;" vertex="1" parent="1">
          <mxGeometry x="350" y="570" width="120" height="80" as="geometry" />
        </mxCell>
        <mxCell id="goEPePhpF9s-D2FCUxsx-5" value="" style="edgeStyle=orthogonalEdgeStyle;rounded=0;orthogonalLoop=1;jettySize=auto;html=1;" edge="1" parent="1" source="goEPePhpF9s-D2FCUxsx-2" target="goEPePhpF9s-D2FCUxsx-3">
          <mxGeometry relative="1" as="geometry" />
        </mxCell>
        <mxCell id="goEPePhpF9s-D2FCUxsx-2" value="Begin" style="ellipse;whiteSpace=wrap;html=1;" vertex="1" parent="1">
          <mxGeometry x="350" y="40" width="120" height="80" as="geometry" />
        </mxCell>
        <mxCell id="goEPePhpF9s-D2FCUxsx-6" value="" style="edgeStyle=orthogonalEdgeStyle;rounded=0;orthogonalLoop=1;jettySize=auto;html=1;" edge="1" parent="1" source="goEPePhpF9s-D2FCUxsx-3" target="goEPePhpF9s-D2FCUxsx-4">
          <mxGeometry relative="1" as="geometry" />
        </mxCell>
        <mxCell id="goEPePhpF9s-D2FCUxsx-3" value="n&lt;div&gt;&lt;br&gt;&lt;/div&gt;" style="shape=parallelogram;perimeter=parallelogramPerimeter;whiteSpace=wrap;html=1;fixedSize=1;" vertex="1" parent="1">
          <mxGeometry x="350" y="150" width="120" height="60" as="geometry" />
        </mxCell>
        <mxCell id="goEPePhpF9s-D2FCUxsx-8" value="" style="edgeStyle=orthogonalEdgeStyle;rounded=0;orthogonalLoop=1;jettySize=auto;html=1;" edge="1" parent="1" source="goEPePhpF9s-D2FCUxsx-4" target="goEPePhpF9s-D2FCUxsx-7">
          <mxGeometry relative="1" as="geometry" />
        </mxCell>
        <mxCell id="goEPePhpF9s-D2FCUxsx-4" value="a = 1, b = 1, result" style="rounded=0;whiteSpace=wrap;html=1;" vertex="1" parent="1">
          <mxGeometry x="350" y="240" width="120" height="60" as="geometry" />
        </mxCell>
        <mxCell id="goEPePhpF9s-D2FCUxsx-10" value="" style="edgeStyle=orthogonalEdgeStyle;rounded=0;orthogonalLoop=1;jettySize=auto;html=1;" edge="1" parent="1" source="goEPePhpF9s-D2FCUxsx-7" target="goEPePhpF9s-D2FCUxsx-9">
          <mxGeometry relative="1" as="geometry" />
        </mxCell>
        <mxCell id="goEPePhpF9s-D2FCUxsx-7" value="result = a * b&lt;div&gt;&lt;br&gt;&lt;/div&gt;" style="rounded=0;whiteSpace=wrap;html=1;" vertex="1" parent="1">
          <mxGeometry x="350" y="350" width="120" height="60" as="geometry" />
        </mxCell>
        <mxCell id="goEPePhpF9s-D2FCUxsx-13" value="" style="edgeStyle=orthogonalEdgeStyle;rounded=0;orthogonalLoop=1;jettySize=auto;html=1;" edge="1" parent="1" source="goEPePhpF9s-D2FCUxsx-9" target="goEPePhpF9s-D2FCUxsx-11">
          <mxGeometry relative="1" as="geometry" />
        </mxCell>
        <mxCell id="goEPePhpF9s-D2FCUxsx-14" value="" style="edgeStyle=orthogonalEdgeStyle;rounded=0;orthogonalLoop=1;jettySize=auto;html=1;" edge="1" parent="1" source="goEPePhpF9s-D2FCUxsx-9" target="goEPePhpF9s-D2FCUxsx-1">
          <mxGeometry relative="1" as="geometry" />
        </mxCell>
        <mxCell id="goEPePhpF9s-D2FCUxsx-9" value="b = n" style="rhombus;whiteSpace=wrap;html=1;" vertex="1" parent="1">
          <mxGeometry x="370" y="440" width="80" height="80" as="geometry" />
        </mxCell>
        <mxCell id="goEPePhpF9s-D2FCUxsx-12" style="edgeStyle=orthogonalEdgeStyle;rounded=0;orthogonalLoop=1;jettySize=auto;html=1;entryX=1;entryY=0.5;entryDx=0;entryDy=0;" edge="1" parent="1" source="goEPePhpF9s-D2FCUxsx-11" target="goEPePhpF9s-D2FCUxsx-7">
          <mxGeometry relative="1" as="geometry">
            <Array as="points">
              <mxPoint x="560" y="380" />
            </Array>
          </mxGeometry>
        </mxCell>
        <mxCell id="goEPePhpF9s-D2FCUxsx-11" value="b = b + a" style="rounded=0;whiteSpace=wrap;html=1;" vertex="1" parent="1">
          <mxGeometry x="500" y="450" width="120" height="60" as="geometry" />
        </mxCell>
        <mxCell id="goEPePhpF9s-D2FCUxsx-15" value="false" style="text;html=1;align=center;verticalAlign=middle;resizable=0;points=[];autosize=1;strokeColor=none;fillColor=none;" vertex="1" parent="1">
          <mxGeometry x="445" y="438" width="50" height="30" as="geometry" />
        </mxCell>
        <mxCell id="goEPePhpF9s-D2FCUxsx-16" value="true&lt;div&gt;&lt;br&gt;&lt;/div&gt;" style="text;html=1;align=center;verticalAlign=middle;resizable=0;points=[];autosize=1;strokeColor=none;fillColor=none;" vertex="1" parent="1">
          <mxGeometry x="420" y="520" width="40" height="40" as="geometry" />
        </mxCell>
      </root>
    </mxGraphModel>
  </diagram>
</mxfile>
